<svg width="32" height="32" viewBox="0 0 32 32" fill="none" xmlns="http://www.w3.org/2000/svg">
<path d="M29.2932 24.4403C29.2932 24.9203 29.1865 25.4137 28.9598 25.8937C28.7332 26.3737 28.4398 26.827 28.0532 27.2537C27.3998 27.9737 26.6798 28.4937 25.8665 28.827C25.0665 29.1603 24.1998 29.3337 23.2665 29.3337C21.9065 29.3337 20.4532 29.0137 18.9198 28.3603C17.3865 27.707 15.8532 26.827 14.3332 25.7203C12.7998 24.6003 11.3465 23.3603 9.95984 21.987C8.5865 20.6003 7.3465 19.147 6.23984 17.627C5.1465 16.107 4.2665 14.587 3.6265 13.0803C2.9865 11.5603 2.6665 10.107 2.6665 8.72033C2.6665 7.81366 2.8265 6.94699 3.1465 6.14699C3.4665 5.33366 3.97317 4.58699 4.67984 3.92033C5.53317 3.08033 6.4665 2.66699 7.45317 2.66699C7.8265 2.66699 8.19984 2.74699 8.53317 2.90699C8.87984 3.06699 9.1865 3.30699 9.4265 3.65366L12.5198 8.01366C12.7598 8.34699 12.9332 8.65366 13.0532 8.94699C13.1732 9.22699 13.2398 9.50699 13.2398 9.76033C13.2398 10.0803 13.1465 10.4003 12.9598 10.707C12.7865 11.0137 12.5332 11.3337 12.2132 11.6537L11.1998 12.707C11.0532 12.8537 10.9865 13.027 10.9865 13.2403C10.9865 13.347 10.9998 13.4403 11.0265 13.547C11.0665 13.6537 11.1065 13.7337 11.1332 13.8137C11.3732 14.2537 11.7865 14.827 12.3732 15.5203C12.9732 16.2137 13.6132 16.9203 14.3065 17.627C15.0265 18.3337 15.7198 18.987 16.4265 19.587C17.1198 20.1737 17.6932 20.5737 18.1465 20.8137C18.2132 20.8403 18.2932 20.8803 18.3865 20.9203C18.4932 20.9603 18.5998 20.9737 18.7198 20.9737C18.9465 20.9737 19.1198 20.8937 19.2665 20.747L20.2798 19.747C20.6132 19.4137 20.9332 19.1603 21.2398 19.0003C21.5465 18.8137 21.8532 18.7203 22.1865 18.7203C22.4398 18.7203 22.7065 18.7737 22.9998 18.8937C23.2932 19.0137 23.5998 19.187 23.9332 19.4137L28.3465 22.547C28.6932 22.787 28.9332 23.067 29.0798 23.4003C29.2132 23.7337 29.2932 24.067 29.2932 24.4403Z" stroke="#292D32" stroke-width="1.5" stroke-miterlimit="10"/>
</svg>
