<svg width="16" height="17" viewBox="0 0 16 17" fill="none" xmlns="http://www.w3.org/2000/svg">
<path d="M5.99998 15.1667H9.99998C13.3333 15.1667 14.6666 13.8334 14.6666 10.5V6.50004C14.6666 3.16671 13.3333 1.83337 9.99998 1.83337H5.99998C2.66665 1.83337 1.33331 3.16671 1.33331 6.50004V10.5C1.33331 13.8334 2.66665 15.1667 5.99998 15.1667Z" stroke="#292D32" stroke-width="1.5" stroke-linecap="round" stroke-linejoin="round"/>
<path d="M6.00002 7.16667C6.7364 7.16667 7.33335 6.56971 7.33335 5.83333C7.33335 5.09695 6.7364 4.5 6.00002 4.5C5.26364 4.5 4.66669 5.09695 4.66669 5.83333C4.66669 6.56971 5.26364 7.16667 6.00002 7.16667Z" stroke="#292D32" stroke-width="1.5" stroke-linecap="round" stroke-linejoin="round"/>
<path d="M1.78003 13.1333L5.0667 10.9266C5.59336 10.5733 6.35336 10.6133 6.8267 11.02L7.0467 11.2133C7.5667 11.66 8.4067 11.66 8.9267 11.2133L11.7 8.83329C12.22 8.38662 13.06 8.38662 13.58 8.83329L14.6667 9.76662" stroke="#292D32" stroke-width="1.5" stroke-linecap="round" stroke-linejoin="round"/>
</svg>
