<svg width="100" height="100" viewBox="0 0 100 100" fill="none" xmlns="http://www.w3.org/2000/svg">
<g clip-path="url(#clip0_1755_6807)">
<path opacity="0.3" d="M86.4085 22.3016C87.8989 20.5482 90.5284 20.335 92.2818 21.8253C94.0351 23.3157 94.2484 25.9453 92.758 27.6986L57.3413 69.3653C55.8276 71.1462 53.1453 71.3338 51.3984 69.781L32.6484 53.1143C30.9285 51.5855 30.7736 48.9518 32.3024 47.2319C33.8312 45.512 36.4648 45.3571 38.1848 46.8859L53.7508 60.7224L86.4085 22.3016Z" fill="#27AE60"/>
<path d="M65.5755 26.4681C67.0659 24.7147 69.6954 24.5015 71.4488 25.9919C73.2021 27.4822 73.4153 30.1118 71.925 31.8651L36.5083 73.5318C34.9946 75.3127 32.3123 75.5003 30.5654 73.9475L11.8154 57.2808C10.0955 55.752 9.94054 53.1183 11.4694 51.3984C12.9982 49.6785 15.6318 49.5236 17.3518 51.0524L32.9178 64.8889L65.5755 26.4681Z" fill="#27AE60"/>
</g>
<defs>
<clipPath id="clip0_1755_6807">
<rect width="100" height="100" fill="white"/>
</clipPath>
</defs>
</svg>
