<svg width="50" height="50" viewBox="0 0 50 50" fill="none" xmlns="http://www.w3.org/2000/svg">
<g id="user (3) 1" clip-path="url(#clip0_377_2846)">
<g id="Group">
<g id="Group_2">
<path id="Vector" d="M25 0C17.7306 0 11.8164 5.91416 11.8164 13.1836C11.8164 20.453 17.7306 26.3672 25 26.3672C32.2694 26.3672 38.1836 20.453 38.1836 13.1836C38.1836 5.91416 32.2694 0 25 0Z" fill="#AFAFAF"/>
</g>
</g>
<g id="Group_3">
<g id="Group_4">
<path id="Vector_2" d="M41.4029 35.1753C37.7936 31.5104 33.0087 29.4922 27.9297 29.4922H22.0703C16.9914 29.4922 12.2064 31.5104 8.59707 35.1753C5.00537 38.8222 3.02734 43.636 3.02734 48.7305C3.02734 49.5395 3.6832 50.1953 4.49219 50.1953H45.5078C46.3168 50.1953 46.9727 49.5395 46.9727 48.7305C46.9727 43.636 44.9946 38.8222 41.4029 35.1753Z" fill="#AFAFAF"/>
</g>
</g>
</g>
<defs>
<clipPath id="clip0_377_2846">
<rect width="50" height="50" fill="white"/>
</clipPath>
</defs>
</svg>
