<svg width="32" height="32" viewBox="0 0 32 32" fill="none" xmlns="http://www.w3.org/2000/svg">
<g id="Export">
<path id="Vector 9" d="M16.0002 6.66699L15.2931 5.95989L16.0002 5.25278L16.7073 5.95989L16.0002 6.66699ZM17.0002 18.667C17.0002 19.2193 16.5524 19.667 16.0002 19.667C15.4479 19.667 15.0002 19.2193 15.0002 18.667L17.0002 18.667ZM8.62639 12.6266L15.2931 5.95989L16.7073 7.3741L10.0406 14.0408L8.62639 12.6266ZM16.7073 5.95989L23.3739 12.6266L21.9597 14.0408L15.2931 7.3741L16.7073 5.95989ZM17.0002 6.66699L17.0002 18.667L15.0002 18.667L15.0002 6.66699L17.0002 6.66699Z" fill="white"/>
<path id="Vector 114" d="M6.6665 21.333L6.6665 22.6663C6.6665 24.1391 7.86041 25.333 9.33317 25.333L22.6665 25.333C24.1393 25.333 25.3332 24.1391 25.3332 22.6663V21.333" stroke="white" stroke-width="2"/>
</g>
</svg>
