<svg width="18" height="18" viewBox="0 0 16 15" fill="none" xmlns="http://www.w3.org/2000/svg">
<path d="M15.75 11.5H6V10.25C6 9.83438 5.66563 9.5 5.25 9.5H3.75C3.33437 9.5 3 9.83438 3 10.25V11.5H0.25C0.1125 11.5 0 11.6125 0 11.75V12.25C0 12.3875 0.1125 12.5 0.25 12.5H3V13.75C3 14.1656 3.33437 14.5 3.75 14.5H5.25C5.66563 14.5 6 14.1656 6 13.75V12.5H15.75C15.8875 12.5 16 12.3875 16 12.25V11.75C16 11.6125 15.8875 11.5 15.75 11.5ZM5 13.5H4V10.5H5V13.5ZM15.75 2.5H8V1.25C8 0.834375 7.66563 0.5 7.25 0.5H5.75C5.33437 0.5 5 0.834375 5 1.25V2.5H0.25C0.1125 2.5 0 2.6125 0 2.75V3.25C0 3.3875 0.1125 3.5 0.25 3.5H5V4.75C5 5.16563 5.33437 5.5 5.75 5.5H7.25C7.66563 5.5 8 5.16563 8 4.75V3.5H15.75C15.8875 3.5 16 3.3875 16 3.25V2.75C16 2.6125 15.8875 2.5 15.75 2.5ZM7 4.5H6V1.5H7V4.5ZM15.75 7H13V5.75C13 5.33437 12.6656 5 12.25 5H10.75C10.3344 5 10 5.33437 10 5.75V7H0.25C0.1125 7 0 7.1125 0 7.25V7.75C0 7.8875 0.1125 8 0.25 8H10V9.25C10 9.66562 10.3344 10 10.75 10H12.25C12.6656 10 13 9.66562 13 9.25V8H15.75C15.8875 8 16 7.8875 16 7.75V7.25C16 7.1125 15.8875 7 15.75 7ZM12 9H11V6H12V9Z" fill="#828282"/>
</svg>
