<?xml version="1.0" encoding="UTF-8"?>
<svg version="1.1" xmlns="http://www.w3.org/2000/svg" width="100" height="100">
<path d="M0 0 C84.48 0 168.96 0 256 0 C256 84.48 256 168.96 256 256 C171.52 256 87.04 256 0 256 C0 171.52 0 87.04 0 0 Z " fill="#FCFCFC" transform="translate(0,0)"/>
<path d="M0 0 C0.721875 0.8765625 1.44375 1.753125 2.1875 2.65625 C4.90151288 5.47329095 4.90151288 5.47329095 8.96875 4.68359375 C10.48638421 4.295428 11.99684052 3.87840569 13.5 3.4375 C15.11510308 3.02168888 16.73099833 2.60894308 18.34765625 2.19921875 C19.13930176 1.99087402 19.93094727 1.7825293 20.74658203 1.56787109 C44.17209096 -4.33545867 68.6480159 0.09610894 89.625 11.5625 C101.60448531 18.03434389 110.84820682 20.32550902 124.5 20.4375 C125.62776855 20.44789307 126.75553711 20.45828613 127.91748047 20.46899414 C138.13823104 20.36143072 147.63047443 18.79003278 156.875 14.3125 C161.12891037 12.27210695 164.20892143 11.13760586 169 12 C171.75329021 13.79562405 173.52627461 15.05254922 175 18 C175.10273197 19.50895866 175.14377487 21.02232647 175.15390015 22.53474426 C175.16250061 23.48948135 175.17110107 24.44421844 175.17996216 25.42788696 C175.18635208 27.00429459 175.18635208 27.00429459 175.19287109 28.61254883 C175.20513733 30.26880028 175.20513733 30.26880028 175.21765137 31.95851135 C175.24253227 35.62467907 175.25902739 39.29080803 175.2734375 42.95703125 C175.27876118 44.20666845 175.28408485 45.45630566 175.28956985 46.74381065 C175.31080416 51.99468684 175.32993428 57.24555719 175.34119225 62.49646473 C175.35743046 70.02064882 175.39060495 77.54431642 175.44759309 85.06830579 C175.49096719 90.99710258 175.50693774 96.9257841 175.51332474 102.85474205 C175.52005407 105.37658046 175.53531937 107.89841086 175.55921555 110.42014503 C175.59073144 113.94692133 175.59092363 117.47238823 175.58349609 120.99926758 C175.59990143 122.0441333 175.61630676 123.08899902 175.63320923 124.16552734 C175.57209041 131.2424729 175.57209041 131.2424729 172.67276001 135.08158875 C155.91012242 147.11320868 129.91778015 149.44510306 110.01171875 146.50390625 C96.67808394 143.83113914 84.6135995 138.57478472 72.54663086 132.47827148 C62.34690509 127.42547231 53.52304428 126.65720726 42.1875 126.6875 C40.99318359 126.67138672 39.79886719 126.65527344 38.56835938 126.63867188 C28.78625644 126.63334683 20.25169308 128.05279144 11.31217957 132.06474304 C10.50398364 132.42664577 9.69578772 132.78854849 8.86310101 133.16141796 C8.24827767 133.43815003 7.63345434 133.71488211 7 134 C6.99635437 135.16431549 6.99270874 136.32863098 6.98895264 137.52822876 C6.95199958 148.50477092 6.89422327 159.48103262 6.81609726 170.45736122 C6.77660063 176.10032941 6.74442274 181.74314104 6.72900391 187.38623047 C6.71385192 192.83290359 6.67943178 198.27914634 6.63169098 203.7256279 C6.61686222 205.8027815 6.60895813 207.87999655 6.60811615 209.95720291 C6.60574929 212.86858162 6.5786917 215.77876829 6.54589844 218.68994141 C6.5509288 219.54733917 6.55595917 220.40473694 6.56114197 221.28811646 C6.46780231 226.6497246 5.57462656 229.7519972 2 234 C-1.09985526 235.92693706 -2.83174654 236.00600905 -6.5 235.875 C-10.31676375 234.92080906 -12.1992823 233.71834365 -15 231 C-16.65833114 227.68333771 -16.1479542 223.97389457 -16.14717102 220.32719421 C-16.15084771 219.41838102 -16.1545244 218.50956782 -16.1583125 217.57321483 C-16.16937929 214.50933487 -16.17319823 211.44548878 -16.17700195 208.3815918 C-16.18326428 206.19239188 -16.18991087 204.00319303 -16.19691467 201.81399536 C-16.21434451 195.85322807 -16.22488158 189.89246882 -16.2331202 183.93168235 C-16.23826555 180.21057034 -16.24434146 176.48946084 -16.25063133 172.7683506 C-16.26859416 161.80213573 -16.28297317 150.83592549 -16.29080774 139.86969851 C-16.29224625 137.86243246 -16.29369762 135.85516642 -16.29516602 133.84790039 C-16.29589163 132.85120358 -16.29589163 132.85120358 -16.2966319 131.83437148 C-16.30493416 121.06782347 -16.33027424 110.30138649 -16.36274669 99.53488698 C-16.39580431 88.48440484 -16.41349475 77.43398205 -16.41702431 66.38345081 C-16.41937929 60.17762999 -16.42839803 53.97198465 -16.45348549 47.76621056 C-16.47669924 41.92954564 -16.48102638 36.09317258 -16.47072411 30.25647354 C-16.47022702 28.11224842 -16.47659797 25.96800927 -16.49028015 23.82382774 C-16.50789519 20.9001175 -16.50094404 17.9774665 -16.48774719 15.05375671 C-16.49871644 14.20200369 -16.50968568 13.35025067 -16.52098733 12.47268695 C-16.47722131 8.46622243 -16.30694819 6.48499712 -14.11404705 3.02007771 C-9.65791466 -1.2379797 -5.9084363 -1.58261687 0 0 Z " fill="#010101" transform="translate(49,11)"/>
<path d="M0 0 C0.66 0.33 1.32 0.66 2 1 C0.625 3.5 0.625 3.5 -1 6 C-1.66 6 -2.32 6 -3 6 C-3 6.66 -3 7.32 -3 8 C-3.99 7.67 -4.98 7.34 -6 7 C-4.6875 4.0625 -4.6875 4.0625 -3 1 C-2.01 0.67 -1.02 0.34 0 0 Z " fill="#121212" transform="translate(211,23)"/>
<path d="M0 0 C1.65 1.65 3.3 3.3 5 5 C4.67 5.99 4.34 6.98 4 8 C2.68 7.67 1.36 7.34 0 7 C-0.93423645 3.98968256 -1.04449911 3.13349732 0 0 Z " fill="#0C0C0C" transform="translate(219,24)"/>
<path d="M0 0 C0 0.99 0 1.98 0 3 C-0.66 3.66 -1.32 4.32 -2 5 C-2.99 4.34 -3.98 3.68 -5 3 C-4.67 2.34 -4.34 1.68 -4 1 C-4.66 0.67 -5.32 0.34 -6 0 C-3 -1 -3 -1 0 0 Z " fill="#0B0B0B" transform="translate(140,146)"/>
<path d="M0 0 C1.65 1.65 3.3 3.3 5 5 C4.01 6.485 4.01 6.485 3 8 C1.68 7.01 0.36 6.02 -1 5 C-0.67 3.35 -0.34 1.7 0 0 Z " fill="black" transform="translate(50,12)"/>
</svg>
