<svg width="50" height="50" viewBox="0 0 50 50" fill="none" xmlns="http://www.w3.org/2000/svg">
<g opacity="0.2">
<path d="M18.7498 45.8334H31.2498C41.6665 45.8334 45.8332 41.6668 45.8332 31.2501V18.7501C45.8332 8.33342 41.6665 4.16675 31.2498 4.16675H18.7498C8.33317 4.16675 4.1665 8.33342 4.1665 18.7501V31.2501C4.1665 41.6668 8.33317 45.8334 18.7498 45.8334Z" stroke="#292D32" stroke-width="1.5" stroke-linecap="round" stroke-linejoin="round"/>
<path d="M18.7502 20.8333C21.0513 20.8333 22.9168 18.9679 22.9168 16.6667C22.9168 14.3655 21.0513 12.5 18.7502 12.5C16.449 12.5 14.5835 14.3655 14.5835 16.6667C14.5835 18.9679 16.449 20.8333 18.7502 20.8333Z" stroke="#292D32" stroke-width="1.5" stroke-linecap="round" stroke-linejoin="round"/>
<path d="M5.5625 39.4792L15.8333 32.5834C17.4792 31.4792 19.8542 31.6042 21.3333 32.8751L22.0208 33.4792C23.6458 34.8751 26.2708 34.8751 27.8958 33.4792L36.5625 26.0417C38.1875 24.6459 40.8125 24.6459 42.4375 26.0417L45.8333 28.9584" stroke="#292D32" stroke-width="1.5" stroke-linecap="round" stroke-linejoin="round"/>
</g>
</svg>
