<svg width="16" height="4" viewBox="0 0 16 4" fill="none" xmlns="http://www.w3.org/2000/svg">
<path d="M13.8332 1.99992L13.8248 1.99992M7.99984 1.99992L7.9915 1.99992M2.1665 1.99992L2.15817 1.99992M12.9998 1.99992C12.9998 1.53968 13.3729 1.16659 13.8332 1.16659C14.2934 1.16659 14.6665 1.53968 14.6665 1.99992C14.6665 2.46016 14.2934 2.83325 13.8332 2.83325C13.3729 2.83325 12.9998 2.46016 12.9998 1.99992ZM7.1665 1.99992C7.1665 1.53968 7.5396 1.16658 7.99984 1.16659C8.46007 1.16659 8.83317 1.53968 8.83317 1.99992C8.83317 2.46016 8.46007 2.83325 7.99984 2.83325C7.5396 2.83325 7.1665 2.46016 7.1665 1.99992ZM1.33317 1.99992C1.33317 1.53968 1.70627 1.16658 2.1665 1.16658C2.62674 1.16658 2.99984 1.53968 2.99984 1.99992C2.99984 2.46016 2.62674 2.83325 2.1665 2.83325C1.70627 2.83325 1.33317 2.46015 1.33317 1.99992Z" stroke="currentColor" stroke-width="2" stroke-linecap="round" stroke-linejoin="round"/>
</svg>
