<svg width="43" height="42" viewBox="0 0 43 42" fill="none" xmlns="http://www.w3.org/2000/svg">
<path d="M0.5 21C0.5 32.598 9.90202 42 21.5 42C33.098 42 42.5 32.598 42.5 21C42.5 9.40202 33.098 0 21.5 0C9.90202 0 0.5 9.40202 0.5 21Z" fill="#F00073"/>
<path d="M21.4992 12.075C24.3867 12.075 24.7805 12.075 25.9617 12.075C27.0117 12.075 27.5367 12.3375 27.9305 12.4687C28.4555 12.7312 28.8492 12.8625 29.243 13.2562C29.6367 13.65 29.8992 14.0437 30.0305 14.5687C30.1617 14.9625 30.293 15.4875 30.4242 16.5375C30.4242 17.7187 30.4242 17.9812 30.4242 21C30.4242 24.0187 30.4242 24.2812 30.4242 25.4625C30.4242 26.5125 30.1617 27.0375 30.0305 27.4312C29.768 27.9562 29.6367 28.35 29.243 28.7437C28.8492 29.1375 28.4555 29.4 27.9305 29.5312C27.5367 29.6625 27.0117 29.7937 25.9617 29.9249C24.7805 29.9249 24.518 29.9249 21.4992 29.9249C18.4805 29.9249 18.218 29.9249 17.0367 29.9249C15.9867 29.9249 15.4617 29.6625 15.068 29.5312C14.543 29.2687 14.1492 29.1375 13.7555 28.7437C13.3617 28.35 13.0992 27.9562 12.968 27.4312C12.8367 27.0375 12.7055 26.5125 12.5742 25.4625C12.5742 24.2812 12.5742 24.0187 12.5742 21C12.5742 17.9812 12.5742 17.7187 12.5742 16.5375C12.5742 15.4875 12.8367 14.9625 12.968 14.5687C13.2305 14.0437 13.3617 13.65 13.7555 13.2562C14.1492 12.8625 14.543 12.6 15.068 12.4687C15.4617 12.3375 15.9867 12.2062 17.0367 12.075C18.218 12.075 18.6117 12.075 21.4992 12.075ZM21.4992 10.1062C18.4805 10.1062 18.218 10.1062 17.0367 10.1062C15.8555 10.1062 15.068 10.3687 14.4117 10.6312C13.7555 10.8937 13.0992 11.2875 12.443 11.9437C11.7867 12.6 11.5242 13.125 11.1305 13.9125C10.868 14.5687 10.7367 15.3562 10.6055 16.5375C10.6055 17.7187 10.6055 18.1125 10.6055 21C10.6055 24.0187 10.6055 24.2812 10.6055 25.4625C10.6055 26.6437 10.868 27.4312 11.1305 28.0875C11.393 28.7437 11.7867 29.4 12.443 30.0562C13.0992 30.7125 13.6242 30.975 14.4117 31.3687C15.068 31.6312 15.8555 31.7624 17.0367 31.8937C18.218 31.8937 18.6117 31.8937 21.4992 31.8937C24.3867 31.8937 24.7805 31.8937 25.9617 31.8937C27.143 31.8937 27.9305 31.6312 28.5867 31.3687C29.243 31.1062 29.8992 30.7125 30.5555 30.0562C31.2117 29.4 31.4742 28.875 31.868 28.0875C32.1305 27.4312 32.2617 26.6437 32.393 25.4625C32.393 24.2812 32.393 23.8875 32.393 21C32.393 18.1125 32.393 17.7187 32.393 16.5375C32.393 15.3562 32.1305 14.5687 31.868 13.9125C31.6055 13.2562 31.2117 12.6 30.5555 11.9437C29.8992 11.2875 29.3742 11.025 28.5867 10.6312C27.9305 10.3687 27.143 10.2375 25.9617 10.1062C24.7805 10.1062 24.518 10.1062 21.4992 10.1062Z" fill="white"/>
<path d="M21.4992 15.3562C18.3492 15.3562 15.8555 17.85 15.8555 21C15.8555 24.15 18.3492 26.6437 21.4992 26.6437C24.6492 26.6437 27.143 24.15 27.143 21C27.143 17.85 24.6492 15.3562 21.4992 15.3562ZM21.4992 24.675C19.5305 24.675 17.8242 23.1 17.8242 21C17.8242 19.0312 19.3992 17.325 21.4992 17.325C23.468 17.325 25.1742 18.9 25.1742 21C25.1742 22.9687 23.468 24.675 21.4992 24.675Z" fill="white"/>
<path d="M27.2742 16.5375C27.9991 16.5375 28.5867 15.9498 28.5867 15.225C28.5867 14.5001 27.9991 13.9125 27.2742 13.9125C26.5493 13.9125 25.9617 14.5001 25.9617 15.225C25.9617 15.9498 26.5493 16.5375 27.2742 16.5375Z" fill="white"/>
</svg>
