<svg width="43" height="42" viewBox="0 0 43 42" fill="none" xmlns="http://www.w3.org/2000/svg">
<path d="M0.5 21C0.5 32.598 9.90202 42 21.5 42C33.098 42 42.5 32.598 42.5 21C42.5 9.40202 33.098 0 21.5 0C9.90202 0 0.5 9.40202 0.5 21Z" fill="#2867B2"/>
<path d="M15.725 31.5H11.2625V17.4563H15.725V31.5ZM13.4938 15.4875C12.05 15.4875 11 14.4375 11 12.9937C11 11.55 12.1813 10.5 13.4938 10.5C14.9375 10.5 15.9875 11.55 15.9875 12.9937C15.9875 14.4375 14.9375 15.4875 13.4938 15.4875ZM32 31.5H27.5375V23.8875C27.5375 21.6563 26.6187 21 25.3062 21C23.9937 21 22.6812 22.05 22.6812 24.0187V31.5H18.2188V17.4563H22.4187V19.425C22.8125 18.5063 24.3875 17.0625 26.6187 17.0625C29.1125 17.0625 31.7375 18.5062 31.7375 22.8375V31.5H32Z" fill="white"/>
</svg>
