<svg width="43" height="42" viewBox="0 0 43 42" fill="none" xmlns="http://www.w3.org/2000/svg">
<path d="M0.5 21C0.5 32.598 9.90202 42 21.5 42C33.098 42 42.5 32.598 42.5 21C42.5 9.40202 33.098 0 21.5 0C9.90202 0 0.5 9.40202 0.5 21Z" fill="#1877F2"/>
<path d="M32 21C32 15.225 27.275 10.5 21.5 10.5C15.725 10.5 11 15.225 11 21C11 26.25 14.8062 30.5812 19.7937 31.3687V24.0187H17.1687V21H19.7937V18.6375C19.7937 16.0125 21.3688 14.5688 23.7313 14.5688C24.9125 14.5688 26.0938 14.8313 26.0938 14.8313V17.4563H24.7812C23.4688 17.4563 23.075 18.2438 23.075 19.0312V21H25.9625L25.4375 24.0187H22.9438V31.5C28.1938 30.7125 32 26.25 32 21Z" fill="white"/>
</svg>
