<svg width="18" height="18" viewBox="0 0 18 18" fill="none" xmlns="http://www.w3.org/2000/svg">
<path fill-rule="evenodd" clip-rule="evenodd" d="M8.99984 0.0417482C9.09008 0.0416907 9.17927 0.0611766 9.26126 0.0988659C9.34326 0.136555 9.41612 0.191554 9.47484 0.260081L11.9748 3.17675C12.0827 3.30273 12.1361 3.46639 12.1233 3.63173C12.1105 3.79708 12.0325 3.95056 11.9065 4.05841C11.7805 4.16627 11.6169 4.21966 11.4515 4.20685C11.2862 4.19403 11.1327 4.11606 11.0248 3.99008L9.62484 2.35675V11.5001C9.62484 11.6658 9.55899 11.8248 9.44178 11.942C9.32457 12.0592 9.1656 12.1251 8.99984 12.1251C8.83408 12.1251 8.67511 12.0592 8.5579 11.942C8.44069 11.8248 8.37484 11.6658 8.37484 11.5001V2.35591L6.97484 3.99008C6.92143 4.05246 6.85627 4.10371 6.78306 4.1409C6.70985 4.17809 6.63003 4.2005 6.54816 4.20685C6.46629 4.21319 6.38397 4.20335 6.3059 4.17788C6.22783 4.15241 6.15555 4.11182 6.09317 4.05841C6.03079 4.00501 5.97954 3.93984 5.94235 3.86663C5.90516 3.79342 5.88275 3.7136 5.8764 3.63173C5.87006 3.54986 5.8799 3.46754 5.90537 3.38948C5.93084 3.31141 5.97143 3.23913 6.02484 3.17675L8.52484 0.260081C8.58356 0.191554 8.65642 0.136555 8.73841 0.0988659C8.82041 0.0611766 8.90959 0.0416907 8.99984 0.0417482ZM4.82984 5.87675C4.9956 5.87586 5.15492 5.94086 5.27276 6.05745C5.39059 6.17403 5.45729 6.33265 5.45817 6.49841C5.45905 6.66418 5.39405 6.8235 5.27747 6.94133C5.16088 7.05917 5.00226 7.12586 4.8365 7.12675C3.92567 7.13175 3.27984 7.15508 2.789 7.24508C2.31734 7.33258 2.04317 7.47175 1.84067 7.67425C1.60984 7.90508 1.45984 8.22925 1.37734 8.84091C1.29317 9.47008 1.2915 10.3042 1.2915 11.5001V12.3334C1.2915 13.5301 1.29317 14.3642 1.37734 14.9934C1.45984 15.6051 1.61067 15.9284 1.84067 16.1601C2.0715 16.3901 2.39484 16.5401 3.00734 16.6226C3.63567 16.7076 4.47067 16.7084 5.6665 16.7084H12.3332C13.529 16.7084 14.3632 16.7076 14.9932 16.6226C15.6048 16.5401 15.9282 16.3901 16.159 16.1592C16.3898 15.9284 16.5398 15.6051 16.6223 14.9934C16.7065 14.3642 16.7082 13.5301 16.7082 12.3334V11.5001C16.7082 10.3042 16.7065 9.47008 16.6223 8.84008C16.5398 8.22925 16.389 7.90508 16.159 7.67425C15.9557 7.47175 15.6823 7.33258 15.2107 7.24508C14.7198 7.15508 14.074 7.13175 13.1632 7.12675C13.0811 7.12631 12.9999 7.10971 12.9242 7.0779C12.8486 7.04608 12.7799 6.99968 12.7222 6.94133C12.6645 6.88299 12.6188 6.81384 12.5878 6.73785C12.5568 6.66185 12.5411 6.58049 12.5415 6.49841C12.5419 6.41634 12.5585 6.33515 12.5904 6.25949C12.6222 6.18383 12.6686 6.11518 12.7269 6.05745C12.7853 5.99972 12.8544 5.95405 12.9304 5.92305C13.0064 5.89204 13.0878 5.87631 13.1698 5.87675C14.0715 5.88175 14.8223 5.90341 15.4365 6.01591C16.0682 6.13258 16.6057 6.35341 17.0432 6.79091C17.5448 7.29175 17.7598 7.92425 17.8615 8.67425C17.9582 9.39592 17.9582 10.3151 17.9582 11.4542V12.3792C17.9582 13.5192 17.9582 14.4376 17.8615 15.1601C17.7598 15.9101 17.5448 16.5417 17.0432 17.0434C16.5415 17.5451 15.9098 17.7601 15.1598 17.8617C14.4373 17.9584 13.5182 17.9584 12.379 17.9584H5.62067C4.4815 17.9584 3.56234 17.9584 2.83984 17.8617C2.08984 17.7609 1.45817 17.5451 0.956504 17.0434C0.454837 16.5417 0.239837 15.9101 0.139004 15.1601C0.0415039 14.4376 0.0415039 13.5184 0.0415039 12.3792V11.4542C0.0415039 10.3151 0.0415039 9.39591 0.139004 8.67341C0.239004 7.92341 0.455671 7.29175 0.956504 6.79008C1.394 6.35341 1.9315 6.13175 2.56317 6.01591C3.17734 5.90341 3.92817 5.88175 4.82984 5.87675Z" fill="black"/>
</svg>
