<svg width="207" height="38" viewBox="0 0 207 38" fill="none" xmlns="http://www.w3.org/2000/svg">
<path d="M4.96 13.48C4.34667 13.6933 3.81333 13.8533 3.36 13.96C2.93333 14.04 2.57333 14.0267 2.28 13.92C2.01333 13.8133 1.81333 13.6133 1.68 13.32C1.54667 13 1.46667 12.5333 1.44 11.92C1.41333 11.36 1.41333 10.92 1.44 10.6C1.46667 10.2533 1.53333 10 1.64 9.84C1.74667 9.65333 1.88 9.54667 2.04 9.52C2.22667 9.46666 2.45333 9.44 2.72 9.44C4.08 9.44 5.28 9.32 6.32 9.08C7.36 8.84 8.32 8.52 9.2 8.12C10.08 7.69333 10.9333 7.2 11.76 6.64C12.6133 6.05333 13.5467 5.42667 14.56 4.76C14.6667 4.68 14.8533 4.68 15.12 4.76C15.3867 4.84 15.64 4.97333 15.88 5.16C16.1467 5.32 16.3733 5.52 16.56 5.76C16.7467 5.97333 16.8267 6.18667 16.8 6.4C16.8 6.53333 16.7867 6.65333 16.76 6.76C16.7333 6.86667 16.68 7.04 16.6 7.28C16.5467 7.49333 16.4533 7.81333 16.32 8.24C16.2133 8.66667 16.0667 9.25333 15.88 10V10.16C16.68 9.6 17.5067 9.01333 18.36 8.4C19.24 7.78666 20.1467 7.24 21.08 6.76C22.04 6.28 23.04 5.92 24.08 5.68C25.1467 5.41333 26.2533 5.36 27.4 5.52C28.12 5.6 28.6933 5.82666 29.12 6.2C29.5467 6.57333 29.8667 7.02667 30.08 7.56C30.2933 8.09333 30.3733 8.65333 30.32 9.24C30.2933 10.0133 30.08 10.7333 29.68 11.4C29.3067 12.04 28.8267 12.6533 28.24 13.24C27.68 13.8 27.0533 14.3333 26.36 14.84C25.6933 15.32 25.04 15.7733 24.4 16.2C24.2667 16.3333 24.2133 16.4667 24.24 16.6C24.2933 16.7067 24.4133 16.7867 24.6 16.84C27.1067 17.5067 29.04 18.5733 30.4 20.04C31.7867 21.48 32.4933 23.2933 32.52 25.48C32.52 27.2667 32.04 28.8667 31.08 30.28C30.12 31.6933 28.8667 32.9067 27.32 33.92C25.7733 34.9067 24.04 35.6667 22.12 36.2C20.2 36.76 18.2667 37.0533 16.32 37.08C15.3333 37.08 14.3867 36.96 13.48 36.72C12.5733 36.48 11.7733 36.1333 11.08 35.68C10.3867 35.2 9.81333 34.6133 9.36 33.92C8.93333 33.2267 8.68 32.44 8.6 31.56C8.6 31.48 8.77333 31.28 9.12 30.96C9.49333 30.64 9.92 30.3467 10.4 30.08C10.88 29.7867 11.3333 29.5867 11.76 29.48C12.2133 29.3733 12.52 29.4933 12.68 29.84C13.3733 31.4133 14.16 32.5467 15.04 33.24C15.9467 33.9067 17 34.2267 18.2 34.2C19.08 34.2 19.96 34.0133 20.84 33.64C21.72 33.24 22.52 32.7333 23.24 32.12C23.96 31.48 24.5467 30.7467 25 29.92C25.48 29.0933 25.76 28.2133 25.84 27.28C25.92 26.16 25.8133 25.1867 25.52 24.36C25.2267 23.5333 24.7733 22.84 24.16 22.28C23.5733 21.72 22.8533 21.2933 22 21C21.1467 20.7067 20.2 20.5467 19.16 20.52C18.7867 20.52 18.4267 20.5467 18.08 20.6C17.76 20.6533 17.44 20.7067 17.12 20.76C16.8 20.7867 16.4667 20.8 16.12 20.8C15.8 20.8 15.48 20.7467 15.16 20.64C14.9733 20.56 14.7867 20.4267 14.6 20.24C14.4133 20.0533 14.2933 19.84 14.24 19.6C14.1867 19.3333 14.2267 19.08 14.36 18.84C14.52 18.5733 14.84 18.3333 15.32 18.12C16.3067 17.72 17.2533 17.28 18.16 16.8C19.0667 16.32 19.9067 15.8 20.68 15.24C21.4533 14.6533 22.1333 14.0133 22.72 13.32C23.3333 12.6 23.8267 11.8 24.2 10.92C24.36 10.5467 24.3067 10.2 24.04 9.88C23.8 9.53333 23.48 9.33333 23.08 9.28C22.84 9.28 22.5867 9.34666 22.32 9.48C20.7467 10.2533 19.2533 11.1733 17.84 12.24C16.4267 13.3067 15.3733 14.56 14.68 16C14.2 17.0133 13.8133 17.9467 13.52 18.8C13.2267 19.6533 12.9467 20.48 12.68 21.28C12.44 22.08 12.1733 22.88 11.88 23.68C11.6133 24.48 11.28 25.3467 10.88 26.28C10.5067 27.1333 10.0267 28.0933 9.44 29.16C8.88 30.2 8.25333 31.2133 7.56 32.2C6.89333 33.16 6.2 34.0133 5.48 34.76C4.76 35.5067 4.08 35.9867 3.44 36.2C2.72 36.44 2.12 36.3733 1.64 36C1.18667 35.6533 1.04 34.88 1.2 33.68C1.28 32.9867 1.45333 32.2667 1.72 31.52C2.01333 30.7467 2.36 29.96 2.76 29.16C3.18667 28.36 3.65333 27.5467 4.16 26.72C4.66667 25.8667 5.17333 25 5.68 24.12C6.90667 22.0133 7.8 20.1867 8.36 18.64C8.94667 17.0667 9.32 15.76 9.48 14.72C9.66667 13.68 9.70667 12.9067 9.6 12.4C9.49333 11.8933 9.37333 11.64 9.24 11.64C9.08 11.64 8.85333 11.7067 8.56 11.84C8.29333 11.9733 7.97333 12.1333 7.6 12.32C7.22667 12.5067 6.81333 12.7067 6.36 12.92C5.93333 13.1333 5.46667 13.32 4.96 13.48ZM43.1806 23.36C43.1806 23.2533 43.1673 23.12 43.1406 22.96C43.1406 22.8 43.1006 22.64 43.0206 22.48C42.9673 22.32 42.874 22.1867 42.7406 22.08C42.6073 21.9733 42.4073 21.92 42.1406 21.92C41.4473 21.92 40.8073 22.1333 40.2206 22.56C39.6606 22.96 39.1673 23.5067 38.7406 24.2C38.314 24.8933 37.9673 25.6933 37.7006 26.6C37.434 27.5067 37.2606 28.4667 37.1806 29.48C37.1806 30.3867 37.394 31.0933 37.8206 31.6C38.2473 32.1067 38.9273 32.36 39.8606 32.36C40.4473 32.36 41.0873 32.2533 41.7806 32.04C42.5006 31.8 43.234 31.48 43.9806 31.08C44.7273 30.68 45.4606 30.2267 46.1806 29.72C46.9273 29.1867 47.6073 28.6267 48.2206 28.04C48.4073 27.9067 48.6206 27.7333 48.8606 27.52C49.1006 27.28 49.3273 27.16 49.5406 27.16C49.7006 27.16 49.8206 27.2667 49.9006 27.48C50.0073 27.6667 50.0606 27.8667 50.0606 28.08C50.0606 28.5333 49.9006 29.0533 49.5806 29.64C49.2606 30.2267 48.8206 30.8267 48.2606 31.44C47.7006 32.0267 47.0473 32.6133 46.3006 33.2C45.554 33.7867 44.754 34.3067 43.9006 34.76C43.074 35.2133 42.2073 35.5867 41.3006 35.88C40.394 36.1467 39.514 36.28 38.6606 36.28C37.514 36.28 36.5273 36.1467 35.7006 35.88C34.9006 35.5867 34.234 35.2 33.7006 34.72C33.194 34.2133 32.8206 33.64 32.5806 33C32.3406 32.3333 32.2206 31.64 32.2206 30.92C32.2206 29.4267 32.5406 27.92 33.1806 26.4C33.8206 24.8533 34.7006 23.4533 35.8206 22.2C36.9406 20.9467 38.2473 19.92 39.7406 19.12C41.234 18.32 42.8473 17.92 44.5806 17.92C45.2206 17.92 45.7673 18.0533 46.2206 18.32C46.7006 18.56 47.1006 18.88 47.4206 19.28C47.7406 19.6533 47.9673 20.0667 48.1006 20.52C48.2606 20.9733 48.3406 21.3867 48.3406 21.76C48.3406 22.2667 48.1673 22.8533 47.8206 23.52C47.5006 24.16 47.074 24.8133 46.5406 25.48C46.0073 26.12 45.4073 26.76 44.7406 27.4C44.074 28.0133 43.394 28.56 42.7006 29.04C42.0073 29.52 41.3406 29.9067 40.7006 30.2C40.0606 30.4933 39.514 30.64 39.0606 30.64C39.034 30.64 38.954 30.64 38.8206 30.64C38.6873 30.64 38.5273 30.6133 38.3406 30.56C37.8073 30.4267 37.4073 30.16 37.1406 29.76C36.9006 29.36 36.7806 29.0667 36.7806 28.88C36.7806 28.6933 36.9006 28.5733 37.1406 28.52C37.834 28.44 38.5406 28.2267 39.2606 27.88C39.9806 27.5333 40.6206 27.12 41.1806 26.64C41.7673 26.1333 42.2473 25.6 42.6206 25.04C42.994 24.4533 43.1806 23.8933 43.1806 23.36ZM65.6234 27.64C65.7568 27.64 65.8634 27.72 65.9434 27.88C66.0234 28.04 66.0634 28.24 66.0634 28.48C66.0634 29.1733 65.7301 29.9733 65.0634 30.88C64.3968 31.76 63.5434 32.6133 62.5034 33.44C61.4634 34.2667 60.3034 34.96 59.0234 35.52C57.7434 36.08 56.4901 36.36 55.2634 36.36C54.9701 36.36 54.6634 36.3467 54.3434 36.32C54.0234 36.32 53.7034 36.3067 53.3834 36.28C52.7434 36.2533 52.1168 36.1733 51.5034 36.04C50.9168 35.9333 50.3568 35.7733 49.8234 35.56C49.3168 35.32 48.8634 35.0133 48.4634 34.64C48.0634 34.2667 47.7701 33.8133 47.5834 33.28C47.5568 33.28 47.5434 33.2533 47.5434 33.2C47.5434 32.9867 47.7568 32.6533 48.1834 32.2C48.6101 31.72 49.0501 31.2933 49.5034 30.92C49.9568 30.5467 50.2634 30.3067 50.4234 30.2C50.5834 30.0933 50.8101 30.04 51.1034 30.04C51.2634 30.04 51.3568 30.0933 51.3834 30.2C51.6234 30.68 51.9834 31.08 52.4634 31.4C52.9434 31.6933 53.3968 31.84 53.8234 31.84C54.0901 31.84 54.2901 31.7733 54.4234 31.64C55.5434 30.7067 56.3034 29.84 56.7034 29.04C57.1034 28.24 57.3034 27.4533 57.3034 26.68C57.3034 26.1467 57.2234 25.6667 57.0634 25.24C56.9301 24.7867 56.7701 24.36 56.5834 23.96C56.4234 23.56 56.2501 23.16 56.0634 22.76C55.9034 22.3333 55.7968 21.8667 55.7434 21.36C55.1834 22.24 54.5301 23.1867 53.7834 24.2C53.0368 25.1867 52.2101 26.2 51.3034 27.24C50.4234 28.28 49.4768 29.3067 48.4634 30.32C47.4768 31.3067 46.4501 32.24 45.3834 33.12C45.1701 33.28 44.9968 33.36 44.8634 33.36C44.7301 33.36 44.6501 33.2933 44.6234 33.16C44.5701 33.0267 44.5434 32.8533 44.5434 32.64C44.5434 31.76 44.7568 31.0133 45.1834 30.4C45.6101 29.7867 46.0368 29.2667 46.4634 28.84C47.0501 28.2533 47.6634 27.6 48.3034 26.88C48.9434 26.16 49.5968 25.36 50.2634 24.48C50.9568 23.5733 51.6768 22.5733 52.4234 21.48C53.1701 20.3867 53.9701 19.1733 54.8234 17.84C54.7168 17.5467 54.6634 17.2267 54.6634 16.88C54.6634 16.4267 54.7568 16.0133 54.9434 15.64C55.1568 15.2667 55.4234 14.9467 55.7434 14.68C56.0634 14.4133 56.4234 14.2133 56.8234 14.08C57.2501 13.92 57.6901 13.84 58.1434 13.84C58.6768 13.84 59.1168 13.9467 59.4634 14.16C59.8101 14.3733 59.9834 14.5867 59.9834 14.8C59.9034 15.2533 59.8234 15.72 59.7434 16.2C59.6901 16.6533 59.6234 17.12 59.5434 17.6C59.6768 18.3733 59.8901 19.1333 60.1834 19.88C60.4768 20.6 60.7568 21.3333 61.0234 22.08C61.3168 22.8 61.5701 23.5333 61.7834 24.28C61.9968 25.0267 62.1034 25.8 62.1034 26.6C62.1034 27.0533 62.0634 27.52 61.9834 28C61.8234 28.6933 61.5301 29.36 61.1034 30C60.7034 30.64 60.1168 31.2533 59.3434 31.84C60.1968 31.52 60.9701 31.1333 61.6634 30.68C62.3568 30.2 62.9568 29.7333 63.4634 29.28C63.9968 28.8267 64.4368 28.44 64.7834 28.12C65.1568 27.8 65.4368 27.64 65.6234 27.64ZM72.3225 5.4C72.4825 5.16 72.8692 4.93333 73.4825 4.72C74.1225 4.50667 75.2158 4.37333 76.7625 4.32C77.1358 4.29333 77.4025 4.36 77.5625 4.52C77.7492 4.65333 77.8558 4.84 77.8825 5.08C77.9358 5.29333 77.9225 5.52 77.8425 5.76C77.7892 6 77.7225 6.21333 77.6425 6.4C77.1092 7.36 76.6158 8.36 76.1625 9.4C75.7358 10.44 75.2558 11.56 74.7225 12.76C76.0558 13.6933 77.0692 14.3867 77.7625 14.84C78.4825 15.2667 78.9892 15.5867 79.2825 15.8C79.6025 16.0133 79.7758 16.1733 79.8025 16.28C79.8292 16.36 79.8292 16.52 79.8025 16.76C79.7225 17.1067 79.5892 17.4133 79.4025 17.68C79.2425 17.8933 79.0025 18.08 78.6825 18.24C78.3892 18.3733 77.9892 18.3733 77.4825 18.24C77.1092 18.16 76.8158 18.08 76.6025 18C76.4158 17.8933 76.2425 17.7867 76.0825 17.68C75.9225 17.5733 75.7492 17.4533 75.5625 17.32C75.4025 17.1867 75.1625 17.0267 74.8425 16.84C74.6025 16.7067 74.3625 16.56 74.1225 16.4C73.8825 16.24 73.6158 16.08 73.3225 15.92L73.0425 16.6C72.8025 17.2133 72.5492 17.8267 72.2825 18.44C72.0158 19.0267 71.7625 19.6267 71.5225 20.24C71.0425 21.3867 70.5758 22.4933 70.1225 23.56C69.6958 24.6267 69.3092 25.64 68.9625 26.6C68.6158 27.5333 68.3358 28.3867 68.1225 29.16C67.9358 29.9333 67.8425 30.6 67.8425 31.16C67.8425 31.5333 67.9492 31.7467 68.1625 31.8C68.4025 31.8533 68.6958 31.8133 69.0425 31.68C69.3892 31.52 69.7492 31.3067 70.1225 31.04C70.5225 30.7733 70.8692 30.52 71.1625 30.28C71.3225 30.1467 71.5492 29.92 71.8425 29.6C72.1625 29.28 72.4958 28.96 72.8425 28.64C73.1892 28.2933 73.5225 28 73.8425 27.76C74.1892 27.4933 74.4558 27.36 74.6425 27.36C74.9625 27.4133 75.1358 27.5867 75.1625 27.88C75.1892 28.1467 75.1492 28.4533 75.0425 28.8C74.9358 29.12 74.7892 29.44 74.6025 29.76C74.4425 30.08 74.3225 30.2933 74.2425 30.4C73.6825 31.1467 73.0692 31.8667 72.4025 32.56C71.7358 33.2533 71.0158 33.88 70.2425 34.44C69.4958 34.9733 68.6958 35.4 67.8425 35.72C67.0158 36.04 66.1492 36.1867 65.2425 36.16C65.0825 36.16 64.8558 36.1333 64.5625 36.08C64.2692 36.0533 64.0158 35.9733 63.8025 35.84C63.4025 35.6267 63.1225 35.2933 62.9625 34.84C62.7758 34.36 62.6825 33.8267 62.6825 33.24C62.6825 33.0267 62.6825 32.8133 62.6825 32.6C62.6558 32.36 62.6692 32.1333 62.7225 31.92C62.8292 30.48 63.1358 28.9067 63.6425 27.2C64.1492 25.4667 64.7092 23.7467 65.3225 22.04C65.9625 20.3333 66.6025 18.7067 67.2425 17.16C67.9092 15.6133 68.4692 14.2933 68.9225 13.2C67.6425 12.4 66.3492 11.6 65.0425 10.8C63.7625 10 62.5625 9.26667 61.4425 8.6C60.2958 7.90667 59.2825 7.30667 58.4025 6.8C57.4958 6.29333 56.8025 5.93333 56.3225 5.72C56.0292 5.61333 55.8158 5.36 55.6825 4.96C55.5492 4.56 55.4692 4.12 55.4425 3.64C55.4158 3.16 55.4292 2.68 55.4825 2.2C55.5092 1.72 55.5492 1.34667 55.6025 1.08C55.6292 0.733332 55.7092 0.506665 55.8425 0.399998C55.9492 0.293331 56.1092 0.266665 56.3225 0.319999C57.0958 0.453332 58.6825 1.36 61.0825 3.04C63.4558 4.72 66.5492 6.93333 70.3625 9.68C70.5758 9.17333 70.7625 8.72 70.9225 8.32C71.0825 7.92 71.2292 7.56 71.3625 7.24C71.4958 6.89333 71.6292 6.57333 71.7625 6.28C71.9225 5.98667 72.1092 5.69333 72.3225 5.4ZM80.2091 19.6C79.7291 20.3467 79.2757 21.2133 78.8491 22.2C78.4224 23.1867 78.0491 24.1867 77.7291 25.2C77.4091 26.1867 77.1424 27.1333 76.9291 28.04C76.7424 28.9467 76.6491 29.68 76.6491 30.24C76.6491 30.9333 76.7957 31.4 77.0891 31.64C77.4091 31.88 77.8357 32 78.3691 32C78.8491 32 79.3157 31.9067 79.7691 31.72C80.2491 31.5333 80.7157 31.28 81.1691 30.96C81.1691 30.08 81.2491 29.16 81.4091 28.2C81.5957 27.2133 81.8224 26.2667 82.0891 25.36C82.3557 24.4533 82.6357 23.6 82.9291 22.8C83.2224 22 83.5024 21.3333 83.7691 20.8C83.9291 20.4533 84.1824 20.1467 84.5291 19.88C84.9024 19.5867 85.3424 19.3467 85.8491 19.16C86.3557 18.9467 86.9024 18.7867 87.4891 18.68C88.0757 18.5733 88.6757 18.52 89.2891 18.52C89.5824 18.52 89.8224 18.5867 90.0091 18.72C90.2224 18.8267 90.3424 18.96 90.3691 19.12C90.3691 19.2533 90.3157 19.4133 90.2091 19.6C90.0224 19.8133 89.7291 20.32 89.3291 21.12C88.9557 21.8933 88.5691 22.8 88.1691 23.84C87.7691 24.88 87.4091 25.9733 87.0891 27.12C86.7691 28.2667 86.6091 29.3067 86.6091 30.24H86.6491C86.6491 30.9333 86.7957 31.4 87.0891 31.64C87.4091 31.88 87.8357 32 88.3691 32C89.3024 32 90.2091 31.6667 91.0891 31C91.9691 30.3333 92.7291 29.5067 93.3691 28.52C92.7024 28.12 92.1691 27.5867 91.7691 26.92C91.3691 26.2267 91.1691 25.4133 91.1691 24.48C91.1691 24 91.3024 23.5333 91.5691 23.08C91.8357 22.6 92.1691 22.1733 92.5691 21.8C92.9691 21.4267 93.4091 21.1333 93.8891 20.92C94.3957 20.68 94.8757 20.56 95.3291 20.56C96.0491 20.56 96.6491 20.8267 97.1291 21.36C97.6357 21.8667 97.8891 22.76 97.8891 24.04C97.8891 24.3333 97.8757 24.64 97.8491 24.96C97.8224 25.28 97.7824 25.6 97.7291 25.92C98.4491 25.8933 99.0891 25.8 99.6491 25.64C100.209 25.48 100.689 25.3067 101.089 25.12C101.516 24.9333 101.876 24.7733 102.169 24.64C102.462 24.48 102.689 24.4 102.849 24.4C103.036 24.4 103.129 24.56 103.129 24.88C103.129 25.2533 103.036 25.6133 102.849 25.96C102.662 26.28 102.422 26.5867 102.129 26.88C101.676 27.28 101.156 27.64 100.569 27.96C100.009 28.2533 99.4224 28.4933 98.8091 28.68C98.2224 28.8667 97.6491 29.0133 97.0891 29.12C96.5557 29.2 96.1024 29.24 95.7291 29.24C95.1424 30.1467 94.4624 31.0267 93.6891 31.88C92.9157 32.7333 92.0757 33.4933 91.1691 34.16C90.2624 34.8267 89.3024 35.36 88.2891 35.76C87.3024 36.16 86.2891 36.36 85.2491 36.36C84.2357 36.36 83.4357 36.1333 82.8491 35.68C82.2891 35.2267 81.8624 34.6267 81.5691 33.88C81.3557 34.0133 81.1557 34.16 80.9691 34.32C80.8091 34.4533 80.6224 34.5867 80.4091 34.72C79.6091 35.2267 78.7691 35.6267 77.8891 35.92C77.0357 36.2133 76.1691 36.36 75.2891 36.36C73.9291 36.36 72.9424 35.9867 72.3291 35.24C71.7424 34.4667 71.3824 33.4933 71.2491 32.32C71.1957 32.08 71.1691 31.84 71.1691 31.6C71.1691 31.36 71.1691 31.1067 71.1691 30.84C71.1957 29.8267 71.3291 28.7733 71.5691 27.68C71.7824 26.5867 72.0491 25.5333 72.3691 24.52C72.8224 23.0267 73.3024 21.7867 73.8091 20.8C73.9691 20.4533 74.2357 20.1467 74.6091 19.88C74.9824 19.5867 75.4091 19.3467 75.8891 19.16C76.3957 18.9467 76.9424 18.7867 77.5291 18.68C78.1157 18.5733 78.7157 18.52 79.3291 18.52C79.6224 18.52 79.8624 18.5867 80.0491 18.72C80.2624 18.8267 80.3691 18.96 80.3691 19.12C80.3957 19.2 80.3424 19.36 80.2091 19.6ZM93.8891 23.36C93.8891 23.3067 93.8491 23.2533 93.7691 23.2C93.7157 23.1467 93.6357 23.12 93.5291 23.12L93.6491 23.24C93.7557 23.3467 93.8224 23.4667 93.8491 23.6C93.8757 23.6533 93.8757 23.7067 93.8491 23.76C93.8491 23.8133 93.8491 23.8667 93.8491 23.92C93.8757 23.8133 93.8891 23.6933 93.8891 23.56V23.36ZM104.75 14.04C104.75 13.64 104.857 13.2667 105.07 12.92C105.31 12.5467 105.603 12.24 105.95 12C106.297 11.7333 106.683 11.52 107.11 11.36C107.563 11.2 108.003 11.12 108.43 11.12C109.177 11.12 109.75 11.32 110.15 11.72C110.55 12.0933 110.75 12.5333 110.75 13.04C110.75 13.7067 110.457 14.32 109.87 14.88C109.31 15.44 108.67 15.8133 107.95 16C107.63 16.08 107.337 16.12 107.07 16.12C106.35 16.12 105.777 15.9067 105.35 15.48C104.95 15.0533 104.75 14.5733 104.75 14.04ZM107.23 18.52C107.523 18.52 107.763 18.5867 107.95 18.72C108.137 18.8267 108.23 18.96 108.23 19.12C108.23 19.2533 108.15 19.4133 107.99 19.6C107.777 19.84 107.39 20.4133 106.83 21.32C106.297 22.2 105.75 23.2133 105.19 24.36C104.63 25.5067 104.123 26.6933 103.67 27.92C103.243 29.12 103.03 30.16 103.03 31.04C103.03 31.5467 103.23 31.8 103.63 31.8C103.87 31.8 104.163 31.6933 104.51 31.48C104.883 31.2667 105.27 31 105.67 30.68C106.097 30.3333 106.523 29.9733 106.95 29.6C107.403 29.2 107.817 28.84 108.19 28.52C108.563 28.1733 108.897 27.8933 109.19 27.68C109.483 27.4667 109.697 27.36 109.83 27.36C110.203 27.36 110.39 27.5733 110.39 28C110.39 28.2133 110.35 28.4533 110.27 28.72C110.19 28.9867 110.083 29.2533 109.95 29.52C109.817 29.8133 109.657 30.0933 109.47 30.36C109.31 30.6 109.137 30.8133 108.95 31C107.457 32.68 106.003 33.96 104.59 34.84C103.177 35.72 101.79 36.16 100.43 36.16C99.4167 36.16 98.7367 35.88 98.39 35.32C98.0433 34.76 97.87 34.0267 97.87 33.12C97.87 32.2133 97.99 31.16 98.23 29.96C98.4433 28.7333 98.7367 27.5067 99.11 26.28C99.4833 25.0533 99.91 23.8933 100.39 22.8C100.897 21.68 101.417 20.7467 101.95 20C102.11 19.7867 102.403 19.5867 102.83 19.4C103.283 19.2133 103.777 19.0533 104.31 18.92C104.87 18.7867 105.417 18.6933 105.95 18.64C106.483 18.56 106.91 18.52 107.23 18.52ZM126.038 27.64C126.171 27.64 126.278 27.72 126.358 27.88C126.438 28.04 126.478 28.24 126.478 28.48C126.478 29.1733 126.144 29.9733 125.478 30.88C124.811 31.76 123.958 32.6133 122.918 33.44C121.878 34.2667 120.718 34.96 119.438 35.52C118.158 36.08 116.904 36.36 115.678 36.36C115.384 36.36 115.078 36.3467 114.758 36.32C114.438 36.32 114.118 36.3067 113.798 36.28C113.158 36.2533 112.531 36.1733 111.918 36.04C111.331 35.9333 110.771 35.7733 110.238 35.56C109.731 35.32 109.278 35.0133 108.878 34.64C108.478 34.2667 108.184 33.8133 107.998 33.28C107.971 33.28 107.958 33.2533 107.958 33.2C107.958 32.9867 108.171 32.6533 108.598 32.2C109.024 31.72 109.464 31.2933 109.918 30.92C110.371 30.5467 110.678 30.3067 110.838 30.2C110.998 30.0933 111.224 30.04 111.518 30.04C111.678 30.04 111.771 30.0933 111.798 30.2C112.038 30.68 112.398 31.08 112.878 31.4C113.358 31.6933 113.811 31.84 114.238 31.84C114.504 31.84 114.704 31.7733 114.838 31.64C115.958 30.7067 116.718 29.84 117.118 29.04C117.518 28.24 117.717 27.4533 117.717 26.68C117.717 26.1467 117.638 25.6667 117.478 25.24C117.344 24.7867 117.184 24.36 116.998 23.96C116.838 23.56 116.664 23.16 116.478 22.76C116.318 22.3333 116.211 21.8667 116.158 21.36C115.598 22.24 114.944 23.1867 114.198 24.2C113.451 25.1867 112.624 26.2 111.718 27.24C110.838 28.28 109.891 29.3067 108.878 30.32C107.891 31.3067 106.864 32.24 105.797 33.12C105.584 33.28 105.411 33.36 105.277 33.36C105.144 33.36 105.064 33.2933 105.037 33.16C104.984 33.0267 104.957 32.8533 104.957 32.64C104.957 31.76 105.171 31.0133 105.597 30.4C106.024 29.7867 106.451 29.2667 106.877 28.84C107.464 28.2533 108.078 27.6 108.718 26.88C109.358 26.16 110.011 25.36 110.678 24.48C111.371 23.5733 112.091 22.5733 112.838 21.48C113.584 20.3867 114.384 19.1733 115.238 17.84C115.131 17.5467 115.078 17.2267 115.078 16.88C115.078 16.4267 115.171 16.0133 115.358 15.64C115.571 15.2667 115.838 14.9467 116.158 14.68C116.478 14.4133 116.838 14.2133 117.238 14.08C117.664 13.92 118.104 13.84 118.558 13.84C119.091 13.84 119.531 13.9467 119.878 14.16C120.224 14.3733 120.398 14.5867 120.398 14.8C120.318 15.2533 120.238 15.72 120.158 16.2C120.104 16.6533 120.038 17.12 119.958 17.6C120.091 18.3733 120.304 19.1333 120.598 19.88C120.891 20.6 121.171 21.3333 121.438 22.08C121.731 22.8 121.984 23.5333 122.198 24.28C122.411 25.0267 122.518 25.8 122.518 26.6C122.518 27.0533 122.478 27.52 122.398 28C122.238 28.6933 121.944 29.36 121.518 30C121.118 30.64 120.531 31.2533 119.758 31.84C120.611 31.52 121.384 31.1333 122.078 30.68C122.771 30.2 123.371 29.7333 123.878 29.28C124.411 28.8267 124.851 28.44 125.198 28.12C125.571 27.8 125.851 27.64 126.038 27.64ZM130.537 24.08C130.857 23.68 131.257 23.2667 131.737 22.84C132.377 22.2533 133.057 21.7067 133.777 21.2C134.523 20.6667 135.27 20.2267 136.017 19.88C136.79 19.5067 137.537 19.2133 138.257 19C138.977 18.7867 139.657 18.68 140.297 18.68C141.177 18.68 141.803 18.8267 142.177 19.12C142.55 19.3867 142.737 19.76 142.737 20.24C142.737 20.64 142.63 21.0933 142.417 21.6C142.23 22.1067 141.963 22.64 141.617 23.2C141.217 23.8933 140.75 24.6267 140.217 25.4C139.683 26.1467 139.177 26.88 138.697 27.6C138.217 28.2933 137.803 28.96 137.457 29.6C137.137 30.2133 136.963 30.7467 136.937 31.2C136.963 31.6 137.177 31.8 137.577 31.8C138.11 31.8 138.697 31.5733 139.337 31.12C140.003 30.64 140.63 30.1333 141.217 29.6C141.83 29.04 142.363 28.5333 142.817 28.08C143.27 27.6 143.577 27.36 143.737 27.36C144.11 27.36 144.297 27.5733 144.297 28C144.297 28.4533 144.137 28.9733 143.817 29.56C143.523 30.1467 143.203 30.6267 142.857 31C141.363 32.68 139.91 33.96 138.497 34.84C137.083 35.72 135.71 36.16 134.377 36.16C133.31 36.16 132.603 35.8533 132.257 35.24C131.91 34.6 131.737 33.8133 131.737 32.88C131.737 32.08 131.897 31.2667 132.217 30.44C132.563 29.5867 132.95 28.7867 133.377 28.04C133.83 27.2933 134.283 26.6133 134.737 26C135.19 25.3867 135.55 24.88 135.817 24.48C136.03 24.1867 136.137 23.9733 136.137 23.84C136.137 23.76 136.097 23.72 136.017 23.72C135.563 23.72 135.003 23.92 134.337 24.32C133.697 24.6933 133.003 25.2533 132.257 26C131.51 26.72 130.763 27.6133 130.017 28.68C129.297 29.72 128.657 30.9067 128.097 32.24C127.643 33.36 127.163 34.28 126.657 35C126.177 35.72 125.563 36.08 124.817 36.08C124.683 36.08 124.51 36.0667 124.297 36.04C124.083 36.0133 123.883 35.9733 123.697 35.92C123.483 35.8667 123.31 35.8 123.177 35.72C123.043 35.6133 122.977 35.4933 122.977 35.36C123.003 34.56 123.283 33.0533 123.817 30.84C124.323 28.6267 125.137 25.7467 126.257 22.2C126.337 22.0133 126.55 21.4267 126.897 20.44C127.243 19.4533 127.683 18.2267 128.217 16.76C128.75 15.2933 129.35 13.64 130.017 11.8C130.71 9.96 131.417 8.08 132.137 6.16C132.243 5.89333 132.39 5.54667 132.577 5.12C132.763 4.66667 132.923 4.2 133.057 3.72C133.137 3.37333 133.31 3.08 133.577 2.84C133.843 2.6 134.137 2.41333 134.457 2.28C134.803 2.12 135.163 2 135.537 1.92C135.937 1.84 136.323 1.77333 136.697 1.72C137.443 1.61333 138.03 1.58666 138.457 1.64C138.91 1.66667 139.217 1.8 139.377 2.04C139.537 2.25333 139.563 2.58667 139.457 3.04C139.35 3.46667 139.137 4.02667 138.817 4.72C138.363 5.68 137.79 6.93333 137.097 8.48C136.403 10 135.67 11.6533 134.897 13.44C134.15 15.2 133.39 17.0133 132.617 18.88C131.843 20.72 131.15 22.4533 130.537 24.08ZM150.946 23.36C150.946 23.2533 150.933 23.12 150.906 22.96C150.906 22.8 150.866 22.64 150.786 22.48C150.733 22.32 150.64 22.1867 150.506 22.08C150.373 21.9733 150.173 21.92 149.906 21.92C149.213 21.92 148.573 22.1333 147.986 22.56C147.426 22.96 146.933 23.5067 146.506 24.2C146.08 24.8933 145.733 25.6933 145.466 26.6C145.2 27.5067 145.026 28.4667 144.946 29.48C144.946 30.3867 145.16 31.0933 145.586 31.6C146.013 32.1067 146.693 32.36 147.626 32.36C148.213 32.36 148.853 32.2533 149.546 32.04C150.266 31.8 151 31.48 151.746 31.08C152.493 30.68 153.226 30.2267 153.946 29.72C154.693 29.1867 155.373 28.6267 155.986 28.04C156.173 27.9067 156.386 27.7333 156.626 27.52C156.866 27.28 157.093 27.16 157.306 27.16C157.466 27.16 157.586 27.2667 157.666 27.48C157.773 27.6667 157.826 27.8667 157.826 28.08C157.826 28.5333 157.666 29.0533 157.346 29.64C157.026 30.2267 156.586 30.8267 156.026 31.44C155.466 32.0267 154.813 32.6133 154.066 33.2C153.32 33.7867 152.52 34.3067 151.666 34.76C150.84 35.2133 149.973 35.5867 149.066 35.88C148.16 36.1467 147.28 36.28 146.426 36.28C145.28 36.28 144.293 36.1467 143.466 35.88C142.666 35.5867 142 35.2 141.466 34.72C140.96 34.2133 140.586 33.64 140.346 33C140.106 32.3333 139.986 31.64 139.986 30.92C139.986 29.4267 140.306 27.92 140.946 26.4C141.586 24.8533 142.466 23.4533 143.586 22.2C144.706 20.9467 146.013 19.92 147.506 19.12C149 18.32 150.613 17.92 152.346 17.92C152.986 17.92 153.533 18.0533 153.986 18.32C154.466 18.56 154.866 18.88 155.186 19.28C155.506 19.6533 155.733 20.0667 155.866 20.52C156.026 20.9733 156.106 21.3867 156.106 21.76C156.106 22.2667 155.933 22.8533 155.586 23.52C155.266 24.16 154.84 24.8133 154.306 25.48C153.773 26.12 153.173 26.76 152.506 27.4C151.84 28.0133 151.16 28.56 150.466 29.04C149.773 29.52 149.106 29.9067 148.466 30.2C147.826 30.4933 147.28 30.64 146.826 30.64C146.8 30.64 146.72 30.64 146.586 30.64C146.453 30.64 146.293 30.6133 146.106 30.56C145.573 30.4267 145.173 30.16 144.906 29.76C144.666 29.36 144.546 29.0667 144.546 28.88C144.546 28.6933 144.666 28.5733 144.906 28.52C145.6 28.44 146.306 28.2267 147.026 27.88C147.746 27.5333 148.386 27.12 148.946 26.64C149.533 26.1333 150.013 25.6 150.386 25.04C150.76 24.4533 150.946 23.8933 150.946 23.36ZM173.389 27.64C173.522 27.64 173.629 27.72 173.709 27.88C173.789 28.04 173.829 28.24 173.829 28.48C173.829 29.1733 173.496 29.9733 172.829 30.88C172.162 31.76 171.309 32.6133 170.269 33.44C169.229 34.2667 168.069 34.96 166.789 35.52C165.509 36.08 164.256 36.36 163.029 36.36C162.736 36.36 162.429 36.3467 162.109 36.32C161.789 36.32 161.469 36.3067 161.149 36.28C160.509 36.2533 159.882 36.1733 159.269 36.04C158.682 35.9333 158.122 35.7733 157.589 35.56C157.082 35.32 156.629 35.0133 156.229 34.64C155.829 34.2667 155.536 33.8133 155.349 33.28C155.322 33.28 155.309 33.2533 155.309 33.2C155.309 32.9867 155.522 32.6533 155.949 32.2C156.376 31.72 156.816 31.2933 157.269 30.92C157.722 30.5467 158.029 30.3067 158.189 30.2C158.349 30.0933 158.576 30.04 158.869 30.04C159.029 30.04 159.122 30.0933 159.149 30.2C159.389 30.68 159.749 31.08 160.229 31.4C160.709 31.6933 161.162 31.84 161.589 31.84C161.856 31.84 162.056 31.7733 162.189 31.64C163.309 30.7067 164.069 29.84 164.469 29.04C164.869 28.24 165.069 27.4533 165.069 26.68C165.069 26.1467 164.989 25.6667 164.829 25.24C164.696 24.7867 164.536 24.36 164.349 23.96C164.189 23.56 164.016 23.16 163.829 22.76C163.669 22.3333 163.562 21.8667 163.509 21.36C162.949 22.24 162.296 23.1867 161.549 24.2C160.802 25.1867 159.976 26.2 159.069 27.24C158.189 28.28 157.242 29.3067 156.229 30.32C155.242 31.3067 154.216 32.24 153.149 33.12C152.936 33.28 152.762 33.36 152.629 33.36C152.496 33.36 152.416 33.2933 152.389 33.16C152.336 33.0267 152.309 32.8533 152.309 32.64C152.309 31.76 152.522 31.0133 152.949 30.4C153.376 29.7867 153.802 29.2667 154.229 28.84C154.816 28.2533 155.429 27.6 156.069 26.88C156.709 26.16 157.362 25.36 158.029 24.48C158.722 23.5733 159.442 22.5733 160.189 21.48C160.936 20.3867 161.736 19.1733 162.589 17.84C162.482 17.5467 162.429 17.2267 162.429 16.88C162.429 16.4267 162.522 16.0133 162.709 15.64C162.922 15.2667 163.189 14.9467 163.509 14.68C163.829 14.4133 164.189 14.2133 164.589 14.08C165.016 13.92 165.456 13.84 165.909 13.84C166.442 13.84 166.882 13.9467 167.229 14.16C167.576 14.3733 167.749 14.5867 167.749 14.8C167.669 15.2533 167.589 15.72 167.509 16.2C167.456 16.6533 167.389 17.12 167.309 17.6C167.442 18.3733 167.656 19.1333 167.949 19.88C168.242 20.6 168.522 21.3333 168.789 22.08C169.082 22.8 169.336 23.5333 169.549 24.28C169.762 25.0267 169.869 25.8 169.869 26.6C169.869 27.0533 169.829 27.52 169.749 28C169.589 28.6933 169.296 29.36 168.869 30C168.469 30.64 167.882 31.2533 167.109 31.84C167.962 31.52 168.736 31.1333 169.429 30.68C170.122 30.2 170.722 29.7333 171.229 29.28C171.762 28.8267 172.202 28.44 172.549 28.12C172.922 27.8 173.202 27.64 173.389 27.64ZM173.088 32.32C173.408 31.7333 173.888 31.32 174.528 31.08C175.168 30.8133 175.755 30.8133 176.288 31.08C176.848 31.3733 177.195 31.8533 177.328 32.52C177.488 33.16 177.381 33.7867 177.008 34.4C176.821 34.6933 176.608 34.96 176.368 35.2C176.128 35.44 175.875 35.6267 175.608 35.76C175.341 35.8667 175.061 35.9333 174.768 35.96C174.475 35.96 174.195 35.8933 173.928 35.76C173.635 35.6267 173.395 35.44 173.208 35.2C173.021 34.9333 172.888 34.64 172.808 34.32C172.728 34 172.701 33.6667 172.728 33.32C172.781 32.9733 172.901 32.64 173.088 32.32ZM183.281 14.04C183.281 13.64 183.388 13.2667 183.601 12.92C183.841 12.5467 184.135 12.24 184.481 12C184.828 11.7333 185.215 11.52 185.641 11.36C186.095 11.2 186.535 11.12 186.961 11.12C187.708 11.12 188.281 11.32 188.681 11.72C189.081 12.0933 189.281 12.5333 189.281 13.04C189.281 13.7067 188.988 14.32 188.401 14.88C187.841 15.44 187.201 15.8133 186.481 16C186.161 16.08 185.868 16.12 185.601 16.12C184.881 16.12 184.308 15.9067 183.881 15.48C183.481 15.0533 183.281 14.5733 183.281 14.04ZM185.761 18.52C186.055 18.52 186.295 18.5867 186.481 18.72C186.668 18.8267 186.761 18.96 186.761 19.12C186.761 19.2533 186.681 19.4133 186.521 19.6C186.308 19.84 185.921 20.4133 185.361 21.32C184.828 22.2 184.281 23.2133 183.721 24.36C183.161 25.5067 182.655 26.6933 182.201 27.92C181.775 29.12 181.561 30.16 181.561 31.04C181.561 31.5467 181.761 31.8 182.161 31.8C182.401 31.8 182.695 31.6933 183.041 31.48C183.415 31.2667 183.801 31 184.201 30.68C184.628 30.3333 185.055 29.9733 185.481 29.6C185.935 29.2 186.348 28.84 186.721 28.52C187.095 28.1733 187.428 27.8933 187.721 27.68C188.015 27.4667 188.228 27.36 188.361 27.36C188.735 27.36 188.921 27.5733 188.921 28C188.921 28.2133 188.881 28.4533 188.801 28.72C188.721 28.9867 188.615 29.2533 188.481 29.52C188.348 29.8133 188.188 30.0933 188.001 30.36C187.841 30.6 187.668 30.8133 187.481 31C185.988 32.68 184.535 33.96 183.121 34.84C181.708 35.72 180.321 36.16 178.961 36.16C177.948 36.16 177.268 35.88 176.921 35.32C176.575 34.76 176.401 34.0267 176.401 33.12C176.401 32.2133 176.521 31.16 176.761 29.96C176.975 28.7333 177.268 27.5067 177.641 26.28C178.015 25.0533 178.441 23.8933 178.921 22.8C179.428 21.68 179.948 20.7467 180.481 20C180.641 19.7867 180.935 19.5867 181.361 19.4C181.815 19.2133 182.308 19.0533 182.841 18.92C183.401 18.7867 183.948 18.6933 184.481 18.64C185.015 18.56 185.441 18.52 185.761 18.52ZM195.649 16.36C195.915 16.36 196.169 16.4667 196.409 16.68C196.649 16.8933 196.862 17.1467 197.049 17.44C197.235 17.7333 197.369 18.0533 197.449 18.4C197.555 18.7467 197.609 19.04 197.609 19.28C197.609 19.4933 197.555 19.68 197.449 19.84C197.369 20 197.222 20.1067 197.009 20.16C196.102 20.4 195.249 20.92 194.449 21.72C193.649 22.4933 192.942 23.3867 192.329 24.4C191.715 25.3867 191.222 26.4133 190.849 27.48C190.502 28.5467 190.329 29.4667 190.329 30.24C190.329 30.9333 190.475 31.4 190.769 31.64C191.089 31.88 191.515 32 192.049 32C192.982 32 193.889 31.6667 194.769 31C195.675 30.3333 196.435 29.5067 197.049 28.52C196.382 28.12 195.849 27.5867 195.449 26.92C195.075 26.2267 194.889 25.4133 194.889 24.48C194.889 24 195.009 23.5333 195.249 23.08C195.622 22.3867 196.169 21.8 196.889 21.32C197.635 20.8133 198.355 20.56 199.049 20.56C199.742 20.56 200.342 20.8267 200.849 21.36C201.355 21.8667 201.609 22.76 201.609 24.04C201.609 24.3333 201.582 24.64 201.529 24.96C201.502 25.28 201.462 25.6 201.409 25.92C201.809 25.8933 202.182 25.8533 202.529 25.8C202.875 25.7467 203.195 25.68 203.489 25.6C203.915 25.4667 204.289 25.3333 204.609 25.2C204.955 25.0667 205.262 24.9333 205.529 24.8C206.009 24.5333 206.342 24.4 206.529 24.4C206.742 24.4 206.849 24.56 206.849 24.88C206.849 25.3333 206.715 25.7467 206.449 26.12C206.209 26.4933 205.889 26.84 205.489 27.16C205.169 27.4267 204.822 27.6667 204.449 27.88C204.075 28.0667 203.702 28.24 203.329 28.4C202.582 28.6933 201.849 28.9067 201.129 29.04C200.435 29.1733 199.862 29.24 199.409 29.24C198.849 30.1467 198.182 31.0267 197.409 31.88C196.635 32.7333 195.795 33.4933 194.889 34.16C193.982 34.8267 193.022 35.36 192.009 35.76C191.022 36.16 190.009 36.36 188.969 36.36C188.329 36.36 187.755 36.2267 187.249 35.96C186.769 35.6667 186.342 35.3067 185.969 34.88C185.622 34.4267 185.355 33.9333 185.169 33.4C184.982 32.8667 184.889 32.3333 184.889 31.8C184.889 30.68 185.062 29.4667 185.409 28.16C185.755 26.8267 186.249 25.52 186.889 24.24C187.555 22.9333 188.369 21.7067 189.329 20.56C190.289 19.4133 191.382 18.44 192.609 17.64C193.142 17.2933 193.689 17 194.249 16.76C194.835 16.4933 195.302 16.36 195.649 16.36ZM197.609 23.56C197.609 23.5067 197.595 23.4267 197.569 23.32C197.542 23.1867 197.422 23.12 197.209 23.12C197.262 23.1467 197.315 23.2 197.369 23.28C197.422 23.3333 197.462 23.4 197.489 23.48C197.542 23.56 197.569 23.6667 197.569 23.8V23.92C197.569 23.84 197.569 23.7733 197.569 23.72C197.595 23.6667 197.609 23.6133 197.609 23.56Z" fill="#FF433C"/>
</svg>
